<!DOCTYPE svg PUBLIC "-//W3C//DTD SVG 1.1//EN" "http://www.w3.org/Graphics/SVG/1.1/DTD/svg11.dtd">
<!-- Uploaded to: SVG Repo, www.svgrepo.com, Transformed by: SVG Repo Mixer Tools -->
<svg fill="#ffffff" height="800px" width="800px" version="1.1" id="Capa_1" xmlns="http://www.w3.org/2000/svg" xmlns:xlink="http://www.w3.org/1999/xlink" viewBox="0 0 289.55 289.55" xml:space="preserve" stroke="#ffffff">
<g id="SVGRepo_bgCarrier" stroke-width="0"/>
<g id="SVGRepo_tracerCarrier" stroke-linecap="round" stroke-linejoin="round"/>
<g id="SVGRepo_iconCarrier"> <g> <path d="M230.513,30.27c-3.039,0-5.502,2.464-5.502,5.503v221.01c0,0.854,0.198,1.697,0.58,2.461l12.722,25.444 c0.933,1.864,2.838,3.042,4.923,3.042c2.084,0,3.989-1.178,4.922-3.042l12.722-25.444c0.382-0.764,0.581-1.607,0.581-2.461V35.772 c0-3.039-2.465-5.503-5.504-5.503H230.513z M250.455,255.483l-7.219,14.438l-7.219-14.438V41.275h14.438V255.483z"/> <path d="M268.457,64.764v75.317c0,3.039,2.464,5.502,5.504,5.502c3.039,0,5.502-2.463,5.502-5.502V64.764 c0-3.039-2.463-5.503-5.502-5.503C270.92,59.261,268.457,61.725,268.457,64.764z"/> <path d="M206.22,284.047V35.772c0-3.039-2.464-5.503-5.503-5.503h-39.231c-0.645,0-1.261,0.116-1.835,0.319V18.286 c0-3.039-2.464-5.503-5.503-5.503h-17.654v-7.28c0-3.039-2.464-5.503-5.503-5.503H84.667c-3.04,0-5.503,2.464-5.503,5.503v7.28 H61.51c-3.04,0-5.503,2.464-5.503,5.503v12.303c-0.575-0.203-1.19-0.319-1.835-0.319H15.59c-3.039,0-5.503,2.464-5.503,5.503 v248.274c0,3.039,2.464,5.503,5.503,5.503h185.127C203.756,289.55,206.22,287.086,206.22,284.047z M67.013,23.789h17.654 c3.039,0,5.503-2.464,5.503-5.503v-7.28h35.318v7.28c0,3.039,2.464,5.503,5.503,5.503h17.654v41.339H67.013V23.789z M154.149,76.134c3.039,0,5.503-2.464,5.503-5.503v-5.833c0.574,0.204,1.19,0.32,1.835,0.32h9.874v189.564H44.943V65.118h9.229 c0.645,0,1.26-0.116,1.835-0.32v5.833c0,3.039,2.463,5.503,5.503,5.503H154.149z M195.214,278.544H21.093V41.275h33.079 c0.645,0,1.26-0.116,1.835-0.32v13.477c-0.575-0.203-1.19-0.32-1.835-0.32H39.44c-3.039,0-5.503,2.464-5.503,5.503v200.57 c0,3.039,2.464,5.503,5.503,5.503h137.423c3.04,0,5.504-2.464,5.504-5.503V59.615c0-3.039-2.464-5.503-5.504-5.503h-15.376 c-0.645,0-1.261,0.117-1.835,0.32V40.955c0.574,0.204,1.19,0.32,1.835,0.32h33.728V278.544z"/> <path d="M55.906,118.364c0,3.039,2.464,5.502,5.503,5.502h93.485c3.039,0,5.503-2.463,5.503-5.502c0-3.039-2.464-5.504-5.503-5.504 H61.409C58.37,112.86,55.906,115.325,55.906,118.364z"/> <path d="M154.894,173.135H61.409c-3.039,0-5.503,2.464-5.503,5.503c0,3.039,2.464,5.503,5.503,5.503h93.485 c3.039,0,5.503-2.464,5.503-5.503C160.397,175.599,157.933,173.135,154.894,173.135z"/> <path d="M154.894,142.997H61.409c-3.039,0-5.503,2.464-5.503,5.503c0,3.04,2.464,5.503,5.503,5.503h93.485 c3.039,0,5.503-2.463,5.503-5.503C160.397,145.461,157.933,142.997,154.894,142.997z"/> <path d="M154.894,203.273H61.409c-3.039,0-5.503,2.464-5.503,5.503c0,3.039,2.464,5.503,5.503,5.503h93.485 c3.039,0,5.503-2.464,5.503-5.503C160.397,205.736,157.933,203.273,154.894,203.273z"/> </g> </g>
</svg>