<?xml version="1.0" encoding="iso-8859-1"?>
<!-- Uploaded to: SVG Repo, www.svgrepo.com, Generator: SVG Repo Mixer Tools -->
<svg version="1.1" id="Layer_1" xmlns="http://www.w3.org/2000/svg" xmlns:xlink="http://www.w3.org/1999/xlink" 
	 viewBox="0 0 512 512" xml:space="preserve">
<rect x="227.709" y="169.091" style="fill:#4AC4C3;" width="56.581" height="32.833"/>
<path style="fill:#EF8770;" d="M384.588,351.047c9.02,0,16.34,7.31,16.34,16.34c0,9.02-7.321,16.34-16.34,16.34
	c-9.031,0-16.34-7.32-16.34-16.34C368.248,358.356,375.557,351.047,384.588,351.047z"/>
<path style="fill:#EFA7B7;" d="M338.367,304.825c9.031,0,16.34,7.32,16.34,16.34c0,9.031-7.31,16.34-16.34,16.34
	c-9.02,0-16.34-7.31-16.34-16.34C322.026,312.146,329.347,304.825,338.367,304.825z"/>
<path style="fill:#EE5F80;" d="M430.799,304.825c9.031,0,16.34,7.32,16.34,16.34c0,9.031-7.31,16.34-16.34,16.34
	c-9.02,0-16.34-7.31-16.34-16.34C414.459,312.146,421.779,304.825,430.799,304.825z"/>
<g>
	<polygon style="fill:#EEC278;" points="189.974,301.557 189.974,340.774 147.02,340.774 147.02,383.728 107.803,383.728 
		107.803,340.774 64.861,340.774 64.861,301.557 107.803,301.557 107.803,258.614 147.02,258.614 147.02,301.557 	"/>
	<path style="fill:#EEC278;" d="M384.588,258.614c9.02,0,16.34,7.31,16.34,16.34c0,9.02-7.321,16.34-16.34,16.34
		c-9.031,0-16.34-7.32-16.34-16.34C368.248,265.924,375.557,258.614,384.588,258.614z"/>
</g>
<path style="fill:#C5E2E2;" d="M384.588,201.924H127.412c-65.852,0-119.242,53.39-119.242,119.242
	c0,65.863,53.39,119.252,119.242,119.252c46.603,0,86.942-26.733,106.561-65.699h44.054c19.619,38.966,59.958,65.699,106.561,65.699
	c65.852,0,119.242-53.39,119.242-119.252C503.83,255.314,450.44,201.924,384.588,201.924z M189.974,340.774H147.02v42.954h-39.217
	v-42.954H64.861v-39.217h42.943v-42.943h39.217v42.943h42.954L189.974,340.774L189.974,340.774z M338.367,337.506
	c-9.02,0-16.34-7.31-16.34-16.34c0-9.02,7.321-16.34,16.34-16.34c9.031,0,16.34,7.32,16.34,16.34
	C354.707,330.196,347.397,337.506,338.367,337.506z M384.588,383.728c-9.031,0-16.34-7.32-16.34-16.34
	c0-9.031,7.31-16.34,16.34-16.34c9.02,0,16.34,7.31,16.34,16.34C400.929,376.407,393.608,383.728,384.588,383.728z M384.588,291.295
	c-9.031,0-16.34-7.32-16.34-16.34c0-9.031,7.31-16.34,16.34-16.34c9.02,0,16.34,7.31,16.34,16.34
	C400.929,283.975,393.608,291.295,384.588,291.295z M430.799,337.506c-9.02,0-16.34-7.31-16.34-16.34
	c0-9.02,7.321-16.34,16.34-16.34c9.031,0,16.34,7.32,16.34,16.34C447.139,330.196,439.83,337.506,430.799,337.506z"/>
<g>
	<path style="fill:#700019;" d="M189.974,293.387H155.19v-34.772c0-4.512-3.657-8.17-8.17-8.17h-39.217
		c-4.513,0-8.17,3.658-8.17,8.17v34.772H64.861c-4.513,0-8.17,3.658-8.17,8.17v39.217c0,4.512,3.657,8.17,8.17,8.17h34.772v34.783
		c0,4.512,3.657,8.17,8.17,8.17h39.217c4.513,0,8.17-3.658,8.17-8.17v-34.783h34.783c4.513,0,8.17-3.658,8.17-8.17v-39.217
		C198.144,297.045,194.486,293.387,189.974,293.387z M181.804,332.604H147.02c-4.513,0-8.17,3.658-8.17,8.17v34.783h-22.877v-34.783
		c0-4.512-3.657-8.17-8.17-8.17H73.031v-22.877h34.772c4.513,0,8.17-3.658,8.17-8.17v-34.772h22.877v34.772
		c0,4.512,3.657,8.17,8.17,8.17h34.783L181.804,332.604L181.804,332.604z"/>
	<path style="fill:#700019;" d="M278.027,293.387h-44.054c-4.513,0-8.17,3.658-8.17,8.17s3.657,8.17,8.17,8.17h44.053
		c4.513,0,8.17-3.658,8.17-8.17S282.539,293.387,278.027,293.387z"/>
	<path style="fill:#700019;" d="M384.588,193.754h-92.127v-24.663c0-4.512-3.657-8.17-8.17-8.17H264.17v-52.235
		c0-15.955,12.979-28.933,28.933-28.933H503.83c4.513,0,8.17-3.658,8.17-8.17c0-4.512-3.657-8.17-8.17-8.17H293.104
		c-24.964,0-45.274,20.31-45.274,45.274v52.235h-20.12c-4.513,0-8.17,3.658-8.17,8.17v24.663h-92.127
		C57.157,193.754,0,250.91,0,321.166c0,70.262,57.157,127.423,127.412,127.423c46.729,0,88.99-25.044,111.485-65.699h34.206
		c22.494,40.655,64.755,65.699,111.485,65.699c70.255,0,127.412-57.162,127.412-127.423C512,250.91,454.843,193.754,384.588,193.754
		z M235.879,177.261h40.24v16.493h-40.24V177.261z M384.588,432.248c-42.22,0-80.255-23.452-99.264-61.204
		c-1.388-2.756-4.211-4.496-7.298-4.496h-44.054c-3.086,0-5.91,1.74-7.298,4.496c-19.008,37.752-57.043,61.204-99.264,61.204
		c-61.245,0-111.071-49.832-111.071-111.082c0-61.245,49.826-111.071,111.071-111.071h257.177
		c61.245,0,111.071,49.826,111.071,111.071C495.66,382.416,445.833,432.248,384.588,432.248z"/>
	<path style="fill:#700019;" d="M384.588,299.466c13.515,0,24.511-10.995,24.511-24.511c0-13.516-10.996-24.511-24.511-24.511
		s-24.511,10.995-24.511,24.511C360.078,288.471,371.074,299.466,384.588,299.466z M384.588,266.785c4.506,0,8.17,3.665,8.17,8.17
		c0,4.506-3.665,8.17-8.17,8.17s-8.17-3.665-8.17-8.17S380.083,266.785,384.588,266.785z"/>
	<path style="fill:#700019;" d="M338.367,296.655c-13.515,0-24.511,10.995-24.511,24.511c0,13.516,10.996,24.511,24.511,24.511
		s24.511-10.995,24.511-24.511C362.877,307.65,351.882,296.655,338.367,296.655z M338.367,329.336c-4.506,0-8.17-3.665-8.17-8.17
		s3.665-8.17,8.17-8.17s8.17,3.665,8.17,8.17S342.872,329.336,338.367,329.336z"/>
	<path style="fill:#700019;" d="M384.588,342.877c-13.515,0-24.511,10.995-24.511,24.511c0,13.516,10.996,24.511,24.511,24.511
		s24.511-10.995,24.511-24.511C409.099,353.871,398.103,342.877,384.588,342.877z M384.588,375.557c-4.506,0-8.17-3.665-8.17-8.17
		s3.665-8.17,8.17-8.17s8.17,3.665,8.17,8.17S389.094,375.557,384.588,375.557z"/>
	<path style="fill:#700019;" d="M430.799,296.655c-13.515,0-24.511,10.995-24.511,24.511c0,13.516,10.996,24.511,24.511,24.511
		s24.511-10.995,24.511-24.511C455.31,307.65,444.314,296.655,430.799,296.655z M430.799,329.336c-4.506,0-8.17-3.665-8.17-8.17
		s3.665-8.17,8.17-8.17s8.17,3.665,8.17,8.17S435.305,329.336,430.799,329.336z"/>
</g>
</svg>