<?xml version="1.0" encoding="utf-8"?>
<!-- Generator: Adobe Illustrator 27.5.0, SVG Export Plug-In . SVG Version: 6.00 Build 0)  -->
<svg version="1.1" id="Layer_1" xmlns="http://www.w3.org/2000/svg" xmlns:xlink="http://www.w3.org/1999/xlink" x="0px" y="0px"
	 viewBox="0 0 2301 2000" style="enable-background:new 0 0 2301 2000;" xml:space="preserve">
<g>
	<rect style="fill:#FFFFFF;" width="2301" height="2000"/>
	<path style="fill:#F7CC7F;" d="M2037.768,551.418c-40.558,32.968-98.186,69.56-145.646,85.313l70.51,13.277l-291.259,343.449
		l-580.518,167.073l-686.993,732.637l541.161-0.186l275.739-442.705l552.44-328.217l214.555-457.222l45.708,55.327
		C2024.323,671,2028.515,602.865,2037.768,551.418z"/>
	<path style="fill:#F79C8D;" d="M311.085,1327.021c0,0-31.464-56.398-39.119-68.387c-7.655-11.988-27.596-59.628-28.309-61.506
		c-0.712-1.877,13.733-24.422,10.508-25.193c-3.225-0.772-6.792,11.886-10.232,10.373c-3.44-1.512-13.489-31.984-15.45-30.473
		c-3.669,2.828,5.416,18.902,3.461,19.916c-1.956,1.013-7.879-17.686-11.719-17.136c-3.84,0.551,7.303,17.139,6.229,18.604
		c-1.074,1.465-12.642-14.164-14.735-10.832c-1.137,1.809,10.636,13.644,8.375,14.751c-2.261,1.108-12.733-6.53-13.843-4.327
		c-1.109,2.202,9.686,5.219,12.913,11.157c3.228,5.938,8.725,8.506,11.008,19.503s5.695,50.792,17.389,70.647
		c11.693,19.854,37.409,63.796,37.409,63.796L311.085,1327.021z"/>
	<path style="fill:#355389;" d="M302.376,1308.744c0,0,34.804,37.51,39.978,52.627s-5.044,36.742-19.156,37.688
		c-14.112,0.944-45.516-66.577-45.516-66.577L302.376,1308.744z"/>
	<path style="fill:#F48C7F;" d="M466.314,1580.306c-2.534-2.118-5.595-1.158-14.389-5.224c-1.704-0.788-6.181-2.039-8.186-2.444
		c-0.376-0.076-0.674-0.361-0.772-0.732c-2.673-10.112-14.381-56.865-15.666-70.347c-1.314-13.787-10.206-72.238-11.563-81.126
		c-0.092-0.604-0.692-0.989-1.282-0.825l-25.546,7.124c-0.523,0.146-0.841,0.675-0.721,1.206
		c1.578,6.966,11.397,50.712,14.281,72.852c2.299,17.649,28.593,74.271,29.12,77.893c0.005,0.034,0.01,0.068,0.015,0.102
		c0.159,1.09,1.092,1.896,2.193,1.896c6.487-0.002,27.283-0.006,28.469,0C463.349,1580.686,467.106,1580.968,466.314,1580.306z"/>
	<path style="fill:#13375B;" d="M409.431,1395.206c-13.594-41.237-28.796-39.48-28.796-39.48l11.756,86.695
		c8.395-2.295,19.325-7.404,27.711-9.772C417.321,1419.612,412.779,1405.361,409.431,1395.206z"/>
	<path style="fill:#F7CC7F;" d="M405.21,1287.977c-4.161-27.12-28.697-46.62-54.358-33.461c-5.771,2.959-13.585,8.965-17.571,14.081
		c-10.776,13.831-13.532,30.915-24.664,44.344c4.088,3.101,9.034,6.353,14.922,9.478l6.932-9.242l-2.386,11.533
		c17.227,8.244,41.557,15.046,74.833,14.854C407.1,1320.723,407.429,1302.443,405.21,1287.977z"/>
	<path style="fill:#F48C7F;" d="M413.21,1889.152c-3.917-2.887-7.077-4.795-19.586-10.859c-0.815-0.396-3.786-2.289-4.858-2.944
		c-2.716-1.663-5.443-4.279-7.792-6.899c-2.242-2.502-3.311-10.521-3.815-16.914c1.288-14.275,21.974-243.238,26.337-268.024
		c4.504-25.585-2.356-64.611-2.356-64.611l-15.97-6.023l-30.316,105.077l2.391,79.984c0,0-7.129,23.055-8.029,36.831
		c-0.901,13.777,10.305,125.608,10.305,125.608l0.001-0.001c0.001,3.999-0.157,7.616-0.601,9.875
		c-0.823,4.184-5.405,12.794-3.303,16.729c2.102,3.937,4.504,4.921,4.504,4.921l54.476,0.88
		C417.563,1892.829,415.602,1890.915,413.21,1889.152z"/>
	<path style="fill:#F79C8D;" d="M330.532,1510.691c0,0-18.917,28.537-23.42,52.154c-4.504,23.617,3.306,96.199-5.358,127.147
		c-4.69,16.754-22.466,42.626-25.169,64.275c-2.702,21.648-12.105,84.135-12.105,84.135h0.001
		c-1.423,6.56-3.651,14.673-6.544,18.445c-1.771,2.309-5.005,5.229-7.128,9.401c-3.305,6.495-1.477,16.165,0.96,21.491
		c1.251,2.733-0.088,2.726,2.761,3.606c8.437,2.609,17.413-1.785,21.005-9.884c2.007-4.524,3.768-10.56,4.121-18.164
		c0.375-8.061,1.636-14.465,2.979-19.201l0,0l60.466-148.328l43.775-128.008l11.214-65.928L330.532,1510.691z"/>
	<path style="fill:#86B1F2;" d="M277.171,1877.204c-13.087,2.392-21.795-5.282-26.326-11.026
		c-3.326,6.508-4.949,16.218-2.502,21.563c2.155,4.708,8.453,4.573,13.411,4.758c5.243,0.195,9.299-2.724,11.9-7.3
		C274.869,1883.063,276.122,1880.401,277.171,1877.204z"/>
	<path style="fill:#86B1F2;" d="M388.759,1875.344c-14.407,3.705-25.057,1.187-31.014-1.221c-1.537,4.363-3.573,9.838-2.493,12.995
		c1.322,3.865,3.205,4.739,4.869,4.783c13.16,0.347,48.204,0.817,58.237,0.949c1.401,0.019,2.174-1.623,1.273-2.701
		C417.143,1887.171,389.832,1876.002,388.759,1875.344z"/>
	<path style="fill:#F7CC7F;" d="M342.799,1696.063c1.13,0.077,2.269,0.15,3.413,0.22c0.059,0.004,0.117,0.007,0.176,0.011
		c1.122,0.067,2.249,0.131,3.381,0.189c0.068,0.004,0.137,0.007,0.206,0.011c1.132,0.059,2.269,0.112,3.406,0.161
		c0.058,0.003,0.116,0.005,0.174,0.007c1.158,0.05,2.318,0.094,3.478,0.132c12.913,0.425,28.863,0.26,39.096-1.479
		c5.217-52.229,7.161-99.896,9.092-110.445c4.684-25.586-4.082-65.97-4.082-65.97l-4.184-0.751l2.645-14.955l-70.255,8.856
		c0,0-19.671,28.537-24.355,52.154c-4.684,23.617,3.438,96.198-5.572,127.147C299.419,1691.352,319.476,1694.477,342.799,1696.063z"
		/>
	<path style="fill:#355389;" d="M345.846,1348.322c0,0-25.046-1.599-34.955,9.227c-9.908,10.824,21.98,96.453,23.782,110.229
		c1.802,13.776-9.185,50.407-9.185,50.407s58.836,11.867,75.652,0.714c0,0,1.802-99.066,0-108.907
		c-1.802-9.842-16.815-49.861-20.419-53.798C377.118,1352.258,345.846,1348.322,345.846,1348.322z"/>
	<path style="fill:#F7A491;" d="M354.184,1314.779c0,0-0.129,0.739-0.362,1.997c-1.117,6.035-5.417,26.057-8.322,31.561
		c-3.511,6.651,12.019,27.866,26.966,25.276c4.45-0.771-3.761-19.492-3.366-21.475c0.755-3.797,1.78-8.976,2.828-14.285
		c0.591-2.995,1.19-6.033,1.752-8.887c1.599-8.112,2.903-14.747,2.903-14.747L354.184,1314.779z"/>
	<path style="fill:#F47458;" d="M353.821,1316.776c0.233-1.258,0.362-1.997,0.362-1.997l22.398-0.56c0,0-1.304,6.635-2.903,14.747
		c-0.559,2.838-1.154,5.857-1.743,8.837c-3.457-0.511-7.071-2.195-10.694-5.374c-3.95-3.465-6.538-7.629-8.101-12.075
		C353.418,1318.936,353.648,1317.713,353.821,1316.776z"/>
	<path style="fill:#F7A491;" d="M369.259,1263.752c0,0-10.557-1.223-17.175,7.355c-6.618,8.578-13.75,35.106,2.689,49.529
		c16.439,14.423,32.682-1.902,35.09-19.213C392.271,1284.114,393.207,1263.127,369.259,1263.752z"/>
	<path style="fill:#F7A491;" d="M394.726,1301.168c-1.962,3.823-5.256,5.94-7.357,4.729c-2.101-1.211-2.213-5.293-0.251-9.116
		c1.962-3.823,5.256-5.94,7.356-4.729C396.576,1293.264,396.688,1297.346,394.726,1301.168z"/>
	<path style="fill:#F7CC7F;" d="M370.439,1260.915c0,0-14.104,25.228-24.194,26.394c-10.09,1.166-11.415,14.57-11.415,14.57
		s3.607-30.889,13.596-36.845C358.416,1259.077,370.439,1260.915,370.439,1260.915z"/>
	<path style="fill:#F7A491;" d="M348.892,1293.647c0.82,4.479-0.83,8.589-3.687,9.177c-2.856,0.588-5.837-2.567-6.657-7.048
		c-0.821-4.479,0.829-8.588,3.686-9.176C345.09,1286.013,348.071,1289.167,348.892,1293.647z"/>
	<path style="fill:#FFFFFF;" d="M361.319,1309.92l15.263,3.003c0,0-1.492,5.728-8.242,4.602
		C360.109,1316.15,361.319,1309.92,361.319,1309.92z"/>
	<g>
		
			<rect x="1605.068" y="1749.43" transform="matrix(-0.9825 0.1863 -0.1863 -0.9825 3527.8398 3313.3198)" style="fill:#3C8F7C;" width="6.369" height="145.952"/>
		<polygon style="fill:#3C8F7C;" points="1329.152,1895.364 1321.625,1895.364 1349.676,1750.101 1355.935,1751.286 		"/>
		<polygon style="fill:#3C8F7C;" points="1548.902,1895.364 1541.375,1895.364 1569.426,1750.101 1575.684,1751.286 		"/>
		<polygon style="fill:#184655;" points="1397.736,1895.364 1403.848,1895.437 1376.953,1750.752 1370.696,1751.938 		"/>
		<path style="fill:#F47458;" d="M1506.051,1435.292c33.412,3.578,76.651,7.353,120.059,81.016
			c47.442,80.509,22.469,200.771-14.977,234.188c-37.444,33.42-159.742,74.683-262.548,12.908c0,0-62.075-37.436-30.217-99.566
			c49.024-95.611,42.098-115.549,64.018-153.019S1435.129,1427.696,1506.051,1435.292z"/>
		<path style="fill:#B75742;" d="M1626.109,1516.308c-29.627-50.277-59.175-67.994-85.574-75.315
			c10.212,10.567,20.563,24.161,30.925,41.745c47.442,80.509,22.469,200.771-14.977,234.188
			c-33.207,29.637-133.144,65.431-227.04,30.073c9.653,10.683,19.142,16.405,19.142,16.405
			c102.806,61.774,225.104,20.512,262.548-12.908C1648.578,1717.078,1673.552,1596.816,1626.109,1516.308z"/>
		<polygon style="fill:#F79C8D;" points="1398.78,1557.662 1390.193,1583.426 1416.365,1573.131 		"/>
		<path style="fill:#6394DB;" d="M1425.762,1480.994c-1.745,0.072-6.526,1.666-13.518,14.835
			c-8.929,16.816-21.979,67.616-21.979,67.616l38.952,14.456l5.004-10.603l8.242-81.63
			C1442.464,1485.669,1426.245,1480.975,1425.762,1480.994z"/>
		<path style="fill:#86B1F2;" d="M1477.251,1473.672c-11.138,0.015-38.697,3.254-51.489,7.326c0,0-9.396,80.492,8.46,141.654
			c3.997,13.691-3.306,56.756-3.306,56.756l115.418-1.518c0,0-13.673-104.11-8.521-120.927c5.15-16.816,5.273-75.425,5.273-75.425
			s-0.791-0.122-25.932-4.453C1505.428,1475.065,1489.144,1473.656,1477.251,1473.672z"/>
		<path style="fill:#F7A491;" d="M1490.7,1828.805c0,0-2.553,29.37-7.248,37.504c-4.694,8.134,0.247,21.961,0.494,23.858
			s9.884,4.608,25.203,2.982c15.32-1.627,15.073-5.151,13.837-10.845c-1.234-5.693-9.389-13.014-9.883-18.436
			c-0.494-5.423,4.694-24.943,4.694-24.943L1490.7,1828.805z"/>
		<path style="fill:#E5B05C;" d="M1443.938,1655.166c0,0-79.674-4.408-97.465,6.33c-17.792,10.738,3.217,32.789,3.217,32.789
			s64.862,28.106,173.453,34.352c25.715,1.479,27.931-66.821,23.122-72.474C1541.458,1650.512,1443.938,1655.166,1443.938,1655.166z
			"/>
		<path style="fill:#F47458;" d="M1511.061,1895.429c15.775-1.675,13.824-9.398,12.553-15.261c-0.797-3.672-5.322-7.999-8.02-12.093
			c-1.411,1.12-3.704,3.097-10.555,5.113c-7.114,2.094-16.866-2.051-23.08-4.646c-2.215,8.214-2.316,18.69-2.109,20.28
			C1480.104,1890.776,1495.285,1897.104,1511.061,1895.429z"/>
		<path style="fill:#F7CC7F;" d="M1502.354,1711.972c-3.184,24.006-18.944,143.51-18.944,143.51l36.569,4.519
			c0,0,44.971-155.98,42.665-179.839c-2.307-23.858-19.14-25.865-19.14-25.865S1510.778,1648.426,1502.354,1711.972z"/>
		<path style="fill:#F7A491;" d="M1544.342,1490.486c-10.791-4.034-16.07,92.869-17.525,132.755
			c-19.109,1.832-52.419,0.014-60.713-0.606c-3.901-0.292-12.895-3.575-16.774-4.082c-3.976-0.519-7.579-0.788-9.533-0.449
			c-0.718,0.124-20.637,8.242-22.341,10.022c-2.113,2.208-7.826,7.777-6.862,10.186s10.987-6.71,10.987-6.71l4.899-2.739
			c-6.099,5.938-17.73,13.757-16.055,16.604c1.634,2.776,12.126-5.158,19.604-10.566c-6.414,5.774-14.383,16.105-12.547,17.716
			c1.65,1.448,10.714-10.514,20.4-13.958c3.59-1.276,7.168,2.259,9.991,2.686c2.075,0.313,5.279,0.981,7.315,0.406l10.488-2.965
			c3.572,0.323,3.662,2.429,7.271,3.194c4.188,0.889,11.061,1.824,16.395,3.123c30.716,7.479,40.961,10.952,50.365,10.946
			C1568.194,1656.031,1569.847,1500.021,1544.342,1490.486z"/>
		<path style="fill:#86B1F2;" d="M1564.822,1581.462c2.021-40.855,1.726-91.212-21.255-99.804
			c-9.067-3.39-25.053,16.993-22.178,100.634C1533.658,1583.301,1551.669,1584.114,1564.822,1581.462z"/>
		<path style="fill:#F7A491;" d="M1383.764,1853.928c0,0,3.19,10.195-2.522,16.938c-5.714,6.742-29.456,13.357-32.572,17.01
			c-3.116,3.651-2.881,6.762-2.881,6.762l66.637-1.827l-0.727-20.057l-3.068-14.413L1383.764,1853.928z"/>
		<path style="fill:#F47458;" d="M1377.097,1874.228c0,0,17.122,6.903,25.393,2.816s8.021-5.219,10.414-3.695
			c2.394,1.524,3.251,22.016,3.251,22.016l-74.932,0.505c-5.214-0.12-7.851-3.947-3.613-7.224c2.904-2.246,6.262-3.75,8.169-4.841
			C1351.64,1880.455,1377.097,1874.228,1377.097,1874.228z"/>
		<path style="fill:#F7CC7F;" d="M1386.289,1673.987c-5.149-10.802-16.863-24.865-37.474-16.395
			c-19.657,8.078-24.933,27.933-18.731,48.265c6.202,20.331,47.032,139.848,48.455,156.28l32.6,0.216
			c0,0-5.925-94.636-7.378-117.511C1402.362,1722.833,1395.203,1692.683,1386.289,1673.987z"/>
		<path style="fill:#355389;" d="M1333.367,1563.907h108.973c2.883,0,5.48,1.743,6.574,4.41l33.554,81.836h60.077
			c1.68,0,3.042,1.36,3.042,3.039l0,0c0,1.679-1.362,3.04-3.042,3.04H1371.56c-4.701,0-8.964-2.76-10.889-7.048l-33.786-75.262
			C1324.774,1569.222,1328.214,1563.907,1333.367,1563.907z"/>
		<path style="fill:#FFFFFF;" d="M1392.038,1611.562c0.736,3.676,3.942,6.134,7.161,5.49c3.22-0.644,5.232-4.146,4.496-7.821
			s-3.942-6.134-7.161-5.49C1393.314,1604.384,1391.302,1607.886,1392.038,1611.562z"/>
		<path style="fill:#F7A491;" d="M1490.494,1439.168l5.332,35.143c0,0-19.472,41.843-31.096,38.214
			c-9.753-3.045-3.753-40.068-3.753-40.068s5.316-19.883,3.722-29.832C1463.105,1432.674,1490.494,1439.168,1490.494,1439.168z"/>
		<path style="opacity:0.2;fill:#F47458;" d="M1464.699,1442.624c-1.594-9.95,25.795-3.456,25.795-3.456l0.442,2.914
			c-0.802,1.95-1.781,3.619-2.971,4.898c-6.118,6.584-15.68,10.538-23.948,10.838
			C1464.845,1452.453,1465.354,1446.703,1464.699,1442.624z"/>
		<g>
			<path style="fill:#F7A491;" d="M1494.988,1389.451c0.773-0.281,6.204,40.024-4.102,51.115
				c-10.306,11.09-30.386,14.72-37.588,5.984c-7.967-9.66-7.566-52.98,8.457-64.389S1494.988,1389.451,1494.988,1389.451z"/>
			<path style="fill:#F7CC7F;" d="M1467.855,1360.602c12.385,2.525,20.407,10.095,23.354,13.32
				c5.623,0.664,13.267,3.771,21.16,16.84c9.705,16.068,2.538,33.871-8.76,42.605c-11.297,8.735-11.141,18.824-11.141,18.824
				l-1.785-5.218c-1.318-3.954-1.856-8.146-1.415-12.293c0.264-2.488,0.797-5.179,1.827-7.39c2.717-5.834-5.837-9.709-8.235-14.563
				c-1.847-3.737-1.937-12.286-4.846-18.463l-3.476-4.716c0,0-8.017-6.238-15.86-4.478
				C1450.837,1386.832,1451.965,1357.361,1467.855,1360.602z"/>
			<path style="fill:#F7A491;" d="M1483.389,1419.901c-0.082,4.917,2.153,8.943,4.992,8.991c2.84,0.049,5.208-3.898,5.289-8.815
				c0.082-4.918-2.153-8.943-4.992-8.992C1485.838,1411.037,1483.47,1414.983,1483.389,1419.901z"/>
		</g>
		<path style="fill:#FFFFFF;" d="M1469.475,1433.533l-15.534-0.805c0,0,0.053,5.919,6.874,6.47
			C1469.131,1439.87,1469.475,1433.533,1469.475,1433.533z"/>
	</g>
	<g>
		<path style="fill:#F8A492;" d="M1778.948,1237.622c1.695,6.964,4.752,17.971,4.752,17.971c-0.242,3.025-1.136,15.617-2.199,31.05
			l22.685-9.078c0,0-0.271-25.146,0.74-26.686c0.856-1.302,2.294,0.322,9.247-9.628c2.007-2.872,2.383-8.003,2.383-8.003
			s0.414-6.316-1.005-6.904c-1.418-0.589-3.045,0.354-3.559,1.445c-0.514,1.092-0.381,3.635-0.895,4.726
			c-0.514,1.092-3.795,2.407-5.177,2.339s0.173-18.684,0.173-18.684s0.771-5.279,1.162-7.006c0.334-1.474,1.674-5.791,1.674-5.791
			s1.574-6.266-0.371-6.744c-1.147-0.282-4.069,4.809-6.072,10.21c-2.157,5.818-3.38,11.987-3.997,11.904
			c-1.448-0.194-0.681-10.4-0.681-10.4s1.443-4.676,1.407-6.882c1.363-2.703,2.267-7.719-0.133-8.133
			c-0.442-0.077-3.605,6.294-3.605,6.294s-1.243,4.485-1.969,6.581c-1.277,3.697-1.471,9.536-2.138,12.111
			c-0.555,2.142-1.056,1.261-1.285,1.351c-0.176,0.069,0.134-2.885,0.487-6.945c0.179-2.045-0.058-4.403,0.515-6.733
			c0.53-2.156,0.834-5.244,0.972-7.108c0.389-5.279-2.936-4.739-4.085,0.088c-0.438,1.839-0.897,3.845-1.356,5.88
			c-1.785,7.913-1.735,15.537-2.588,15.602c-1.108,0.082-0.379-13.8-0.379-13.8s-1.7-7.684-3.389-0.553
			c-1.959,8.275-1.755,15.021-1.728,15.32C1778.714,1223.436,1777.253,1230.658,1778.948,1237.622z"/>
		<path style="fill:#F8A492;" d="M2019.718,1219.276c-1.695,6.964-4.752,17.971-4.752,17.971c0.242,3.025,1.136,15.617,2.199,31.051
			l-22.685-9.078c0,0,0.271-25.147-0.74-26.687c-0.856-1.302-2.294,0.323-9.247-9.628c-2.007-2.872-2.383-8.003-2.383-8.003
			s-0.413-6.316,1.005-6.904c1.418-0.589,3.045,0.354,3.559,1.446s0.381,3.634,0.895,4.725c0.514,1.092,3.795,2.407,5.177,2.339
			s-0.173-18.684-0.173-18.684s-0.771-5.278-1.162-7.006c-0.334-1.473-1.674-5.791-1.674-5.791s-1.574-6.265,0.371-6.744
			c1.146-0.282,4.069,4.809,6.072,10.21c2.157,5.818,3.38,11.988,3.997,11.904c1.448-0.194,0.681-10.4,0.681-10.4
			s-1.443-4.676-1.406-6.882c-1.363-2.703-2.268-7.718,0.132-8.133c0.443-0.077,3.605,6.294,3.605,6.294s1.243,4.485,1.968,6.581
			c1.278,3.698,1.472,9.536,2.139,12.111c0.555,2.142,1.057,1.262,1.285,1.352c0.176,0.068-0.133-2.885-0.487-6.945
			c-0.178-2.046,0.058-4.404-0.515-6.734c-0.53-2.156-0.834-5.244-0.971-7.108c-0.39-5.279,2.935-4.739,4.083,0.088
			c0.438,1.839,0.898,3.845,1.357,5.88c1.785,7.913,1.735,15.538,2.589,15.602c1.107,0.082,0.378-13.8,0.378-13.8
			s1.7-7.684,3.389-0.552c1.959,8.274,1.754,15.021,1.728,15.319C2019.952,1205.09,2021.413,1212.313,2019.718,1219.276z"/>
		<path style="fill:#F7A491;" d="M1957.669,1810.965c0,0,12.577,15.595,15.712,17.513c3.134,1.918-1.398,24.575-9.934,26.062
			c-4.811,0.838-7.484-4.457-7.484-4.457l1.381-6.525l-17.97-18.515L1957.669,1810.965z"/>
		<path style="fill:#F7A491;" d="M1892.874,1814.817c0,0,10.482,17.073,13.346,19.376c2.863,2.302-4.527,24.195-13.182,24.579
			c-4.878,0.216-6.854-5.377-6.854-5.377l2.203-6.296l-15.457-20.658L1892.874,1814.817z"/>
		<path style="fill:#13375B;" d="M1905.589,1833.523c0,0-6.021,7.678-9.307,10.734c-4.241,3.945-9.672,7.801-9.672,7.801
			s-6.151,11.165-7.834,15.062c-3.742,8.673-7.946,18.338-7.341,23.192c0.195,1.559,3.697,3.209,6.615,2.313
			c12.149-3.735,43.214-32.152,47.137-39.78C1929.711,1844.047,1905.589,1833.523,1905.589,1833.523z"/>
		<path style="fill:#3C8F7C;" d="M1816.918,1573.478c1.129-3.158,2.211-6.079,3.256-8.826c12.923,2.82,27.519,5.922,42.532,9.122
			l1.829,55.032c-0.009-4.25-11.287,87.775-11.287,87.775s29.175,64.595,49.129,102.243c-8.189,10.217-12.033,13.514-23.892,20.479
			c-30.976-37.133-71.513-105.08-73.196-116.38C1804.32,1716.423,1803.449,1611.371,1816.918,1573.478z"/>
		<path style="fill:#50BFA5;" d="M1932.254,1589.393c-3.949,42.883-12.726,124.862-11.992,131.455
			c2.203,8.22,41.252,84.081,48.279,95.125c-5.58,8.403-14.225,17.489-23.512,19.999c-1.832,0.495-66.273-91.207-69.788-98.485
			c-3.972-8.228-10.588-53.112-10.706-108.681l-1.829-55.032C1887.721,1579.106,1910.724,1584.336,1932.254,1589.393z"/>
		<path style="fill:#355389;" d="M1850.104,1393.921l29.446,4.043c0,0,23.555,0.427,26.475,0.427
			c2.921,0,21.466,107.565,26.82,147.99c5.354,40.426,1.206,47.583,1.206,47.583s-37.335,8.396-64.956,5.949
			c-28.722-2.546-61.037-18.052-61.037-18.052s24.551-77.685,29.418-101.939S1850.104,1393.921,1850.104,1393.921z"/>
		<path style="fill:#86B1F2;" d="M1778.704,1263.798c0,0-1.891,80.089,1.13,86.215c4.392,8.91,53.837,72.097,53.837,72.097
			s-23.62,98.846-33.551,132.979c-0.999,3.438-5.426,25.643-5.426,27.808c0,4.8,20.895,10.893,23.375,10.531
			c2.221-0.323,20.452-94.349,32.092-140.358c3.943-15.591,10.709-30.323,19.965-43.475l8.094-11.501l-62.118-62.262
			c0,0-7.655-69.304-7.655-75.046C1808.446,1259.28,1781.716,1258.151,1778.704,1263.798z"/>
		<path style="fill:#86B1F2;" d="M1905.008,1398.396l77.463-78.927c0,0,10.793-74.637,11.56-77.448
			c0.753-2.762,19.99-4.254,27.742-5.01c2.488-0.242-1.301,79.495-5.009,92.861c-4.381,15.79-62.932,87.732-62.932,87.732
			s-10.494,38.966-7.967,67.549c4.199,47.473,15.515,112.775,13.486,114.824c-12.588,7.929-60.903,8.778-63.962,3.854
			C1861.62,1549.445,1905.008,1398.396,1905.008,1398.396z"/>
		<path style="fill:#13375B;" d="M1972.67,1827.894c0,0-4.991,8.384-7.859,11.836c-3.702,4.454-8.596,8.973-8.596,8.973
			s-4.675,11.858-5.845,15.938c-2.604,9.08-5.546,20.039-4.324,24.777c0.392,1.521,3.737,4.427,6.499,2.629
			c10.651-6.936,39.115-39.427,42.03-47.494C1997.938,1835.249,1972.67,1827.894,1972.67,1827.894z"/>
		<path style="fill:#0E2E35;" d="M1881.723,1295.561c3.294,0.119,6.592,0.094,9.876-0.197c3.713-0.329,8.452-0.566,11.174,0.007
			c5.728,1.207,14.815,5.273,17.849,12.782c3.778,9.354,17.291,7.958,1.283,43.439c-18.119,40.161-39.29,27.013-39.582,26.106
			s-10.468-34.02-10.468-34.02s-12.668,12.56-12.457,12.003C1859.6,1355.145,1842.148,1294.133,1881.723,1295.561z"/>
		<path style="fill:#F7A491;" d="M1879.947,1383.381l-2.11,15.712c0,0-4.728,22.637,1.354,27.001
			c6.083,4.364,25.868-27.646,25.868-27.646l-2.09-39.813L1879.947,1383.381z"/>
		<path style="fill:#F47458;" d="M1903.645,1371.537c-5.024,13.58-16.992,21.928-25.486,25.165l1.789-13.321l23.022-24.746
			L1903.645,1371.537z"/>
		<path style="fill:#F7A491;" d="M1896.087,1313.605c-11.325-6.498-25.801-0.882-30.057,11.303
			c-1.85,5.297-3.892,12.012-5.464,19.479c-3.783,17.959,2.154,37.271,10.313,38.825c8.159,1.556,32.944-5.813,38.668-31.241
			C1913.08,1336.271,1907.97,1320.425,1896.087,1313.605z"/>
		<path style="fill:#F7A491;" d="M1903.148,1352.848c-0.763,3.976,1.247,7.699,4.487,8.317c3.241,0.617,6.487-2.104,7.249-6.08
			c0.763-3.976-1.247-7.698-4.487-8.316C1907.156,1346.151,1903.91,1348.873,1903.148,1352.848z"/>
		<path style="fill:#0E2E35;" d="M1910.397,1346.769c0,0-10.124-1.193-11.313-8.443c-1.188-7.249-8.621-24.731-26.245-25.298
			c-17.623-0.566,18.628-7.765,19.877-7.293c1.249,0.471,16.276,6.023,16.276,6.023s7.967,13.865,7.989,15.066
			c0.022,1.202-0.943,13.844-0.943,13.844L1910.397,1346.769z"/>
		<path style="fill:#FFFFFF;" d="M1884.089,1365.215l-18.057-3.136c0,0-0.788,6.95,7.112,8.56
			C1882.777,1372.602,1884.089,1365.215,1884.089,1365.215z"/>
	</g>
	<g>
		<path style="fill:#F8A492;" d="M971.352,1438.724c0.681,2.347,1.073,3.124,1.938,4.7c5.584,10.164,18.541,24.667,18.541,24.667
			l10.022-22.58c0,0-1.634-7.091-4.468-17.226C987.705,1430.813,978.486,1432.275,971.352,1438.724z"/>
		<path style="fill:#13375B;" d="M1028.813,1419.137c0,0-55.9,24.073-57.707,23.613c-1.164-0.297-22.93-36.729-23.162-70.988
			c-0.107-15.823,16.325-34.857,34.66-31.093c9.23,1.896,9.087,4.463,22.744,24.307
			C1019.004,1384.819,1028.813,1419.137,1028.813,1419.137z"/>
		<path style="fill:#F7A491;" d="M1076.532,1850.729c0,0-1.326,21.954-1.334,22c-0.488,2.787-2.407,9.674-2.407,12.207
			c0,9.52,45.202-8.08,35.071-12.299c-0.917-0.382-5.721-3.27-6.022-6.51c-0.465-4.992-1.644-15.091-1.644-15.091L1076.532,1850.729
			z"/>
		<path style="fill:#DD513A;" d="M1107.75,1872.547c0,0-10.612,2.912-16.048,3.641c-5.436,0.728-12.602-5.402-16.446-3.746
			c-4.232,1.822-4.066,18.227-4.066,18.227s56.911,4.669,72.914-0.161C1150.445,1888.593,1129.446,1879.33,1107.75,1872.547z"/>
		<path style="fill:#F7A491;" d="M984.064,1850.729c0,0-1.327,21.954-1.334,22c-0.488,2.787-2.408,9.674-2.408,12.207
			c0,9.52,45.203-8.08,35.072-12.299c-0.917-0.382-7.145-5.426-7.446-8.665c-0.465-4.992-0.219-12.936-0.219-12.936
			L984.064,1850.729z"/>
		<path style="fill:#DD513A;" d="M1015.282,1872.547c0,0-10.612,2.912-16.048,3.641c-5.436,0.728-12.602-5.402-16.446-3.746
			c-4.232,1.822-4.4,18.227-4.4,18.227s57.169,5.443,73.249-0.161C1057.879,1888.33,1036.978,1879.33,1015.282,1872.547z"/>
		<g>
			<path style="fill:#F7A491;" d="M997.879,1450.888l39.811-55.77c0.167-0.489,0.529-1.487,1.082-3.014
				c2.005-5.534,6.178-17.049,9.812-28.506l0.039-0.122c1.142-4.004,3.563-10.988,5.904-17.747
				c2.604-7.514,5.832-16.831,5.945-18.421c-0.1-0.271-0.288-0.759-0.538-1.406c-1.459-3.79-3.433-12.813-4.131-16.737
				c-0.444-2.498-0.888-8.571,2.082-8.571c4.669,0,2.444,6.065,4.597,9.854c0.792-2.533,2.391-7.555,3.236-12.639l0.781-11.856
				c0.15-0.895-0.801-7.436,2.475-7.436l0.156,0.006c2.942,0.215,2.876,7.169,4.1,18.931c0.387-1.354,0.774-2.985,1.066-4.486
				c-0.034-0.804,0.555-4.34,0.996-6.207c-0.591-3.276-0.248-8.446,3.243-7.959c1.75,0.245,1.605,7.459,1.605,7.459
				c-0.019,0.99-0.122,8.618-0.068,10.125c0.36-2.56,1.758-13.476,4.497-13.476c2.271,0,2.453,2.938,2.406,5.263
				c-0.028,1.376-1.455,13.202-1.534,14.577c1.069-1.794,2.337-12.216,3.396-12.216c4.429,0,2.827,14.818,1.201,18.679
				c-0.153,0.395-0.315,1.17-0.503,2.067c-0.553,2.641-1.479,7.059-3.797,11.025c-2.78,4.756-6.615,12.318-7.2,13.478
				c-0.429,2.361-1.761,10.856-3.437,21.542c-0.717,4.572-1.503,9.587-2.322,14.779l-0.043-0.006
				c-0.15,1.124-0.98,4.697-4.129,18.104c-4.309,18.348-4.757,19.14-4.948,19.479c-1.871,3.313-44.796,61.604-46.622,64.084
				l-1.078,1.463L997.879,1450.888z"/>
			<path style="fill:#F47458;" d="M1071.927,1320.815c0,0-3.231-8.264-8.984-8.279c0,0,3.214-1.159,5.97,1.022
				C1071.669,1315.741,1071.927,1320.815,1071.927,1320.815z"/>
		</g>
		<g>
			<path style="fill:#F7A491;" d="M988.26,1304.85l-5.125,32.411c0,0,19.527,15.68,30.911,12.372
				c9.551-2.775,3.001-15.262,3.001-15.262s-5.088-17.303-3.527-26.372C1015.081,1298.93,988.26,1304.85,988.26,1304.85z"/>
			<path style="fill:#FE875E;" d="M991.939,1314.648c4.895,2.311,14.572,5.465,22.102,6.229c-0.72-4.536-1.13-9.334-0.52-12.878
				c0.72-4.186-4.606-5.176-10.549-5.031c-7.778,0.666-14.711,1.882-14.711,1.882l-0.985,6.229
				C988.754,1312.638,990.309,1313.879,991.939,1314.648z"/>
			<path style="fill:#F7A491;" d="M963.616,1267.464c-0.806,0.003,7.719,36.209,20.912,42.438
				c13.193,6.229,32.869,2.982,36.561-6.77c4.083-10.786-10.812-47.725-29.368-52.417
				C973.165,1246.021,963.616,1267.464,963.616,1267.464z"/>
			<path style="fill:#13375B;" d="M978.883,1234.195c-10.539,6.079-15.375,15.093-17.002,18.785
				c-4.946,2.347-10.931,7.424-13.804,21.103c-3.533,16.819,9.026,29.784,22.341,33.685c13.314,3.899,15.371,12.711,15.371,12.711
				l1.51-9.482c0,0-2.962-8.256-7.416-12.388c-4.454-4.131,2.11-10.153,2.687-15.064c0.444-3.781-2.34-11.125-1.737-17.331
				c0,0,7.399-11.212,14.691-13.982C1007.956,1247.508,992.404,1226.396,978.883,1234.195z"/>
			<path style="fill:#F7A491;" d="M984.491,1289.848c1.724,4.182,1.02,8.334-1.574,9.273s-6.095-1.688-7.819-5.87
				c-1.725-4.182-1.02-8.334,1.574-9.273C979.266,1283.038,982.767,1285.666,984.491,1289.848z"/>
		</g>
		<path style="fill:#F8A492;" d="M1033.634,1451.785l76.793-12.52c0,0-8.737-21.997-11.859-21.997
			c-3.121,0-58.065,23.986-58.065,23.986l-4.37,8.775L1033.634,1451.785z"/>
		<path style="fill:#184655;" d="M994.299,1504.438c0,0-7.661,37.034-4.539,65.115c3.122,28.081,3.367,127.834,3.367,127.834
			l-11.913,159.605l28.267,0.615c0,0,33.518-159.528,32.894-155.433c-0.624,4.095,11.239-112.324,11.239-112.324l-39.959-88.924
			L994.299,1504.438z"/>
		<path style="fill:#13375B;" d="M1001.792,1502.682c0,0-4.995,33.347,1.249,47.973c6.244,14.625,53.552,158.129,54.176,169.829
			c0.625,11.7,16.357,141.025,16.357,141.025l32.868-0.924l7.11-143.785l-14.889-180.713l-14.456-45.69L1001.792,1502.682z"/>
		<path style="fill:#F7A491;" d="M983.135,1337.261c0,0,8.104,5.317,15.664,4.702c7.56-0.616,18.248-7.592,18.248-7.592
			l-1.485-5.035c0,0-19.556-2.849-20.049-2.541C995.019,1327.104,983.135,1337.261,983.135,1337.261z"/>
		<path style="fill:#F8A492;" d="M1069.52,1416.184c0,0,29.047,27.411,42.159,22.731c13.112-4.681,18.537-20.679-13.455-44.084
			C1069.593,1373.883,1069.52,1416.184,1069.52,1416.184z"/>
		<path style="fill:#355389;" d="M1089.202,1450.03c-4.315-23.476-35.588-96.529-38.086-109.984
			c-1.214-6.544-18.083-6.688-34.151-5.834c-16.971,0.902-33.83,3.049-33.83,3.049s-15.025,2.468-21.635,8.661
			c-6.611,6.194-8.366,23.324,1.136,55.842c7.502,25.669,16.8,39.764,21.402,58.461c0.932,6.271,1.73,12.459,2.789,19.688
			c1.692,27.957-0.02,64.891-0.02,64.891s81.792,16.966,112.385-8.775C1099.192,1536.028,1093.624,1474.082,1089.202,1450.03z"/>
		<path style="fill:#466EB6;" d="M1110.057,1399.553c0,0-32.093,26.491-33.966,26.491c-1.206,0-45.798-32.803-56.092-59.752
			c-5.69-14.898,6.245-31.566,19.879-31.512c9.449,0.039,13.65,2.474,32.381,18.27
			C1090.99,1368.845,1110.057,1399.553,1110.057,1399.553z"/>
	</g>
	<path style="fill:#CAE1F9;" d="M1242.254,815.312c-7.85-5.298-15.888-10.32-23.627-15.771c-1.413-0.996-2.661-3.544-2.503-5.238
		c1.018-10.921,2.663-21.786,3.607-32.712c0.274-3.18,0.994-4.846,4.046-6.039c10.746-4.201,21.379-8.693,32.051-13.086
		c1.73-0.712,3.435-1.486,6.419-2.781c-5.096-16.378-10.134-32.572-15.3-49.173c-13.736,2.726-26.264,5.003-38.678,7.79
		c-4.376,0.983-6.762,0.475-9.58-3.583c-5.758-8.293-12.668-15.778-18.868-23.779c-0.951-1.227-1.359-3.703-0.807-5.133
		c4.218-10.92,8.426-21.867,13.297-32.503c2.338-5.104,1.172-7.85-3.401-10.225c-1.759-0.912-3.188-2.459-4.767-3.718
		c-7.893-4.244-15.786-8.488-23.679-12.733c-0.992-0.197-2.048-0.24-2.967-0.616c-9.631-3.939-7.774-3.859-13.244,4.179
		c-6.664,9.794-13.163,19.7-18.866,28.257c-14.753-1.379-28.541-2.669-42.781-4c-5.39-13.084-11.022-26.757-16.691-40.519
		c-17.376,2.338-33.348,7.808-49.015,15.241c2.708,13.507,5.315,26.684,8.019,39.839c0.485,2.361,0.341,3.791-1.974,5.521
		c-9.059,6.775-17.959,13.794-26.53,21.173c-2.471,2.128-4.06,2.137-6.713,1.021c-10.956-4.607-22.018-8.959-32.993-13.521
		c-2.727-1.134-4.492-1.05-6.511,1.616c-9.057,11.961-15.233,25.343-20.298,39.339c-1.003,2.77,0.331,3.97,2.423,5.33
		c9.68,6.292,19.207,12.818,28.929,19.042c2.801,1.794,3.657,3.337,3.097,6.958c-1.935,12.507-3.14,25.126-4.743,38.716
		c-11.893,4.899-25.389,10.458-38.88,16.015c2.31,17.707,7.057,34.098,14.902,49.723c14.724-3.026,29.048-5.97,42.022-8.636
		c8.091,9.327,15.388,18.192,23.229,26.546c2.963,3.157,3.489,5.538,1.756,9.438c-4.616,10.389-8.828,20.958-13.095,31.499
		c-0.843,2.083-2.504,4.508,0.748,6.225c13.228,6.983,26.447,13.981,39.677,20.96c2.812,1.483,4.586,0.538,6.288-2.111
		c6.333-9.855,13.098-19.436,19.261-29.393c2.377-3.842,4.935-3.989,8.921-3.452c9.845,1.324,19.77,2.457,29.685,2.683
		c4.274,0.098,5.839,1.211,7.282,5.012c4.635,12.211,9.75,24.241,14.576,36.088c10.591-0.003,39.444-9.043,49.842-15.504
		c-2.724-12.999-5.341-26.172-8.324-39.262c-0.747-3.275,0.226-4.682,2.73-6.652c8.082-6.359,15.715-13.288,23.734-19.73
		c1.349-1.083,4.089-1.681,5.629-1.078c9.783,3.829,19.434,8.001,29.08,12.172c5.393,2.331,7.561,3.292,9.631,1.905l22.594-42.017
		C1250.947,821.212,1248.604,819.598,1242.254,815.312z M1158.292,800.576c-20.194,37.556-67.011,51.63-104.567,31.436h0
		c-37.556-20.195-51.63-67.012-31.436-104.568l0,0c20.195-37.556,67.012-51.63,104.568-31.436h0
		C1164.413,716.203,1178.487,763.019,1158.292,800.576L1158.292,800.576z"/>
	<path style="fill:#9BC1F9;" d="M849.269,995.188c-12.696,1.236-25.353,2.921-38.065,3.903c-2.322,0.18-5.805-1.396-7.095-3.29
		c-8.317-12.212-15.933-24.905-24.331-37.059c-2.444-3.537-3.126-5.885-0.981-9.743c7.551-13.585,14.736-27.374,22.044-41.094
		c1.185-2.225,2.291-4.491,4.277-8.396c-19.346-12.63-38.476-25.12-58.087-37.923c-11.922,14.62-22.975,27.736-33.471,41.283
		c-3.701,4.777-6.613,6.297-13.021,4.503c-13.096-3.669-26.695-5.509-40-8.494c-2.04-0.458-4.588-2.678-5.243-4.638
		c-4.993-14.958-10.02-29.934-14.09-45.158c-1.954-7.306-5.521-9.156-12.308-7.695c-2.608,0.561-5.42,0.181-8.139,0.23
		c-11.837,2.368-23.675,4.735-35.513,7.103c-1.199,0.646-2.332,1.508-3.608,1.907c-13.38,4.175-11.384,2.666-10.164,15.705
		c1.487,15.888,3.242,31.75,4.664,45.529c-16.501,11.23-31.922,21.725-47.849,32.564c-16.826-8.958-34.408-18.32-52.104-27.742
		c-16.035,17.34-27.921,36.727-37.809,57.891c14.405,11.699,28.42,23.142,42.518,34.479c2.531,2.035,3.608,3.643,2.69,7.426
		c-3.591,14.81-6.807,29.735-9.373,44.753c-0.739,4.329-2.38,5.703-6.093,6.822c-15.329,4.619-30.549,9.595-45.86,14.277
		c-3.804,1.163-5.565,2.765-5.373,7.267c0.863,20.191,5.935,39.385,12.688,58.264c1.336,3.736,3.75,3.838,7.09,3.454
		c15.449-1.775,30.943-3.176,46.378-5.058c4.448-0.543,6.661,0.326,9.187,4.564c8.726,14.646,18.305,28.783,28.305,44.268
		c-8.144,15.294-17.384,32.648-26.622,49.997c17.595,16.402,36.591,29.345,58.146,38.834c12.69-15.778,25.035-31.129,36.216-45.032
		c16.405,2.74,31.59,5.682,46.901,7.624c5.786,0.734,8.375,2.755,9.923,8.292c4.123,14.747,8.822,29.336,13.438,43.941
		c0.913,2.887,1.27,6.83,6.119,5.821c19.727-4.103,39.458-8.183,59.183-12.291c4.193-0.873,5.223-3.378,4.717-7.589
		c-1.884-15.666-3.083-31.42-5.23-47.047c-0.829-6.028,1.7-8.376,6.3-11.24c11.359-7.075,22.635-14.417,33.123-22.692
		c4.521-3.566,7.103-3.754,11.862-1.047c15.293,8.701,30.927,16.801,46.106,24.958c10.994-9.093,33.191-43.241,38.441-58.874
		c-13.983-11.158-28.007-22.589-42.339-33.619c-3.586-2.759-3.784-5.054-2.875-9.25c2.934-13.538,4.912-27.282,7.709-40.854
		c0.47-2.282,2.803-5.255,4.918-5.95c13.444-4.421,27.044-8.372,40.639-12.321c7.6-2.207,10.676-3.07,11.635-6.287l-12.604-63.015
		C863.359,993.853,859.54,994.188,849.269,995.188z M749.45,1051.949c11.266,56.325-25.261,111.118-81.586,122.384l0,0
		c-56.325,11.267-111.118-25.261-122.384-81.586l0,0c-11.266-56.324,25.261-111.118,81.586-122.384l0,0
		C683.391,959.098,738.184,995.625,749.45,1051.949L749.45,1051.949z"/>
	<path style="opacity:0.2;fill:#9BC1F9;" d="M822.866,667.677c-5.087-2.414-10.262-4.65-15.298-7.165
		c-0.92-0.459-1.881-1.847-1.939-2.856c-0.375-6.512-0.377-13.047-0.797-19.555c-0.122-1.894,0.153-2.938,1.841-3.912
		c5.944-3.429,11.795-7.018,17.677-10.553c0.954-0.573,1.887-1.18,3.526-2.208c-4.457-9.175-8.864-18.246-13.382-27.547
		c-7.833,2.828-14.997,5.284-22.046,8.03c-2.485,0.968-3.934,0.882-5.952-1.252c-4.125-4.362-8.856-8.147-13.215-12.298
		c-0.669-0.636-1.129-2.056-0.932-2.946c1.506-6.797,3.003-13.608,4.919-20.297c0.919-3.209-0.011-4.72-2.913-5.708
		c-1.115-0.38-2.093-1.162-3.134-1.761c-5.019-1.792-10.039-3.583-15.058-5.375c-0.601-0.027-1.225,0.042-1.799-0.097
		c-6.014-1.457-4.916-1.576-7.415,3.638c-3.044,6.353-5.982,12.757-8.572,18.297c-8.797,0.505-17.019,0.977-25.51,1.465
		c-4.336-7.212-8.867-14.749-13.428-22.334c-10.008,2.924-18.91,7.565-27.46,13.333c2.797,7.7,5.505,15.215,8.269,22.709
		c0.496,1.345,0.539,2.198-0.668,3.422c-4.722,4.792-9.329,9.712-13.71,14.815c-1.263,1.471-2.196,1.619-3.856,1.2
		c-6.853-1.732-13.745-3.304-20.605-5.007c-1.704-0.423-2.735-0.217-3.684,1.531c-4.258,7.841-6.695,16.26-8.426,24.941
		c-0.342,1.718,0.549,2.305,1.9,2.918c6.253,2.836,12.437,5.823,18.708,8.616c1.807,0.804,2.448,1.636,2.442,3.814
		c-0.022,7.526,0.395,15.054,0.665,23.187c-6.556,3.941-13.995,8.414-21.431,12.885c2.938,10.205,7.19,19.418,13.197,27.905
		c8.387-3.092,16.547-6.101,23.937-8.826c5.589,4.762,10.67,9.324,16.026,13.536c2.023,1.592,2.545,2.945,1.874,5.393
		c-1.788,6.52-3.321,13.11-4.89,19.688c-0.311,1.3-1.07,2.874,0.995,3.593c8.4,2.926,16.797,5.861,25.198,8.784
		c1.786,0.622,2.745-0.093,3.509-1.802c2.844-6.359,5.967-12.596,8.703-19c1.055-2.471,2.545-2.786,4.938-2.826
		c5.907-0.099,11.843-0.319,17.693-1.07c2.521-0.324,3.542,0.191,4.729,2.297c3.814,6.767,7.895,13.383,11.789,19.919
		c6.227-0.947,22.385-8.835,27.922-13.562c-2.76-7.399-5.475-14.912-8.396-22.342c-0.731-1.859-0.285-2.773,1.012-4.155
		c4.185-4.46,8.054-9.214,12.195-13.717c0.696-0.757,2.254-1.353,3.213-1.136c6.094,1.379,12.14,2.971,18.184,4.563
		c3.378,0.89,4.739,1.262,5.833,0.261l9.536-26.72C828.504,670.371,826.982,669.631,822.866,667.677z M772.185,666.503
		c-8.524,23.883-34.795,36.334-58.678,27.811l0,0c-23.883-8.524-36.335-34.795-27.811-58.678l0-0.001
		c8.523-23.883,34.794-36.334,58.677-27.81l0,0C768.258,616.349,780.709,642.62,772.185,666.503L772.185,666.503z"/>
	<path style="fill:#355389;" d="M742.034,1883.486l-15.112-0.06c1.994-65.94,3.75-166.083,0.418-171.7
		c0.009,0.016,0.221,0.361,1.005,0.756l12.264-3.199c1.982,0.997,3.178,1.599,3.592,29.641c0.213,14.431,0.132,34.358-0.241,59.23
		C743.326,1840.492,742.047,1883.062,742.034,1883.486z"/>
	<path style="fill:#355389;" d="M786.308,1882.685H684.357c-4.696,0-8.502,3.807-8.502,8.503l0,0c0,0.821,0.666,1.486,1.487,1.486
		h115.982c0.821,0,1.487-0.665,1.487-1.486l0,0C794.81,1886.491,791.004,1882.685,786.308,1882.685z"/>
	<path style="fill:#355389;" d="M740.384,1874.299h-12.489c-3.695,0-6.69,2.995-6.69,6.69l0,0c0,3.695,2.995,6.69,6.69,6.69h12.489
		c3.695,0,6.69-2.995,6.69-6.69l0,0C747.075,1877.294,744.079,1874.299,740.384,1874.299z"/>
	<rect x="372.885" y="1591.889" style="fill:#13375B;" width="6.033" height="300.588"/>
	<path style="fill:#13375B;" d="M682.958,1425.579c-0.554-13.358,1.413-26.551,7.39-38.988c5.143-10.7,17.866-16.772,29.47-16.788
		c36.845-0.047,41.53,48.635,64.985,67.413c7.167,5.737,15.177,10.411,21.958,16.599c25.041,22.849,13.761,65.145-9.232,85.176
		c-15.956,13.9-41.033,21.798-60.698,10.932c-10.265-5.673-18.058-15.102-23.61-25.433c-7.879-14.662-12.958-31.579-18.563-47.206
		C688.693,1460.651,683.695,1443.336,682.958,1425.579z"/>
	<path style="fill:#F48C7F;" d="M581.311,1565.556l80.178-22.354c0,0,16.893-22.691,38.625-53.131
		c7.105,7.033,11.055,17.838,18.21,24.803l-53.074,58.704c-1.915,2.117-4.632,3.33-7.486,3.339l-73.68,0.245l-25.213,2.01v-16.137
		L581.311,1565.556z"/>
	<path style="fill:#96D9C9;" d="M696.738,1548.537c0,0,27.517-28.216,34.598-40.474c7.081-12.259-4.822-4.278-16.98-7.504
		c-4.604-1.222-3.439-28.202-12.143-19.433c-14.28,14.389-32.232,39.549-32.232,39.549L696.738,1548.537z"/>
	<path style="fill:#50BFA5;" d="M735.861,1468.75c0,0,24.695-4.875,35.964,4.54c11.269,9.415-2.414,93.124-2.402,107.001
		c0.011,13.877,7.738,53.083,7.738,53.083s-74.848,13.101-86.737-7.73c0,0-3.383-79.367-2.879-89.348
		c0.503-9.979,11.601-50.798,14.669-55.169C705.281,1476.757,735.861,1468.75,735.861,1468.75z"/>
	<path style="fill:#F7A491;" d="M736.017,1430.55c0,0,0.13,0.738,0.363,1.995c1.12,6.027,5.434,26.022,8.347,31.52
		c3.521,6.643-12.055,27.83-27.047,25.244c-4.463-0.77,3.772-19.467,3.377-21.447c-0.758-3.792-1.785-8.964-2.836-14.267
		c-0.593-2.992-1.194-6.025-1.758-8.876c-1.604-8.102-2.912-14.728-2.912-14.728L736.017,1430.55z"/>
	<path style="fill:#F47458;" d="M736.38,1432.545c-0.233-1.257-0.363-1.995-0.363-1.995l-22.466-0.559c0,0,1.308,6.626,2.912,14.728
		c0.561,2.835,1.158,5.851,1.748,8.826c3.468-0.51,7.092-2.192,10.726-5.367c3.961-3.461,6.558-7.619,8.125-12.06
		C736.785,1434.701,736.554,1433.479,736.38,1432.545z"/>
	<path style="fill:#F7A491;" d="M720.896,1379.588c0,0,10.589-1.221,17.226,7.347c6.638,8.567,13.792,35.062-2.697,49.466
		c-16.488,14.404-32.779-1.9-35.195-19.188C697.815,1399.925,696.876,1378.964,720.896,1379.588z"/>
	<path style="fill:#F7A491;" d="M695.352,1416.957c1.968,3.818,5.272,5.932,7.379,4.722c2.107-1.21,2.219-5.286,0.252-9.104
		c-1.968-3.818-5.272-5.933-7.378-4.722C693.498,1409.063,693.385,1413.139,695.352,1416.957z"/>
	<path style="fill:#13375B;" d="M719.711,1376.756c0,0,14.147,25.194,24.267,26.358c10.12,1.165,11.449,14.552,11.449,14.552
		s-3.618-30.848-13.637-36.797C731.771,1374.92,719.711,1376.756,719.711,1376.756z"/>
	<path style="fill:#F7A491;" d="M741.324,1409.445c-0.823,4.475,0.833,8.577,3.697,9.164c2.865,0.588,5.854-2.563,6.678-7.037
		c0.823-4.475-0.832-8.577-3.697-9.165C745.137,1401.82,742.147,1404.972,741.324,1409.445z"/>
	<g>
		<path style="fill:#F48C7F;" d="M646.116,1824.396c0,0,22.719,27.241,22.869,29.612c0.15,2.37-0.902,28.24-3.605,30.61
			s-10.64,4.052-8.088,6.718c1.929,2.016,16.767,1.585,26.6,1.043c2.871-0.157,6.47-23.061,7.607-26.427
			c1.651-4.89,5.667-15.901,4.166-19.309c-0.731-1.661-4.231-5.073-9.162-8.258c-5.187-3.351-25.025-30.953-25.025-30.953
			L646.116,1824.396z"/>
		<path style="fill:#B75742;" d="M686.183,1838.225c0,0-15.256,42.954-21.227,45.027c-1.585,0.551-9.194,1.947-10.629,5.313
			c-0.432,1.014,0,4.399,0,4.399h31.798c0,0,4.022-18.926,5.612-27.241c0,0,8.417-20.317,7.482-22.164
			C698.283,1841.713,686.183,1838.225,686.183,1838.225z"/>
		<path style="fill:#F7A491;" d="M510.031,1837.479c0,0-18.553,26.12-16.921,34.384c0.874,4.425,4.766,10.216,2.532,14.38
			c-2.233,4.164-4.785,5.205-4.785,5.205l-57.875,0.931c-3.152,0.051-1.069-1.974,1.473-3.839
			c4.161-3.054,7.518-5.072,20.809-11.488c0.867-0.418,4.022-2.421,5.161-3.114c2.886-1.759,5.784-4.526,8.278-7.299
			c4.156-4.617,22.429-42.242,22.429-42.242L510.031,1837.479z"/>
		<path style="fill:#B75742;" d="M460.433,1873.932c15.306,3.92,26.62,1.255,32.949-1.292c1.632,4.616,3.796,10.408,2.648,13.748
			c-1.405,4.089-3.406,5.014-5.173,5.06c-13.98,0.366-51.211,0.865-61.871,1.004c-1.489,0.02-2.31-1.717-1.353-2.857
			C430.277,1886.443,459.292,1874.627,460.433,1873.932z"/>
		<path style="fill:#B75742;" d="M577.14,1676.34c0,0,22.974,26.221,28.833,30.374c5.859,4.153,62.092,107.701,62.092,107.701
			l-20.033,14.626c0,0-50.256-62.664-73.858-96.182c-19.957-28.341-12.606-26.544-24.341-43.795
			c-6.461-9.497-4.996-22.34,3.524-30.044c1.06-0.959,2.211-1.959,3.463-3.003c17.371-14.479,136.444-30.771,136.444-30.771
			l76.161,7.458c0,0-62.226,43.636-64.549,44.797c-2.322,1.161-85.931,13.354-87.672,13.354
			C615.46,1690.855,577.14,1676.34,577.14,1676.34z"/>
		<path style="fill:#F47458;" d="M777.161,1633.374c0,0,13.064,39.191-6.532,57.481c-19.595,18.289-136.009,16.257-174.329,16.257
			c0,0-15.677,42.966-17.419,49.933c-1.742,6.968-77.802,96.963-77.802,96.963l-20.902-13.354c0,0,81.866-159.088,88.253-166.056
			c6.387-6.967,97.543-34.837,120.188-41.224C711.261,1626.987,777.161,1633.374,777.161,1633.374z"/>
	</g>
	<path style="fill:#F7A491;" d="M625.686,1562.867l69.517-15.38c0,0,25.142-32.303,49.286-60.105
		c7.106,7.033,11.055,17.839,18.21,24.803l-53.074,58.705c-1.914,2.117-4.632,3.329-7.486,3.339l-73.68,0.245l-25.213,2.009v-16.137
		L625.686,1562.867z"/>
	<path style="fill:#96D9C9;" d="M741.113,1545.849c0,0,27.517-28.215,34.598-40.474c7.081-12.259,1.829-32.796-10.33-36.021
		c-12.158-3.225-51.025,48.635-51.025,48.635L741.113,1545.849z"/>
	<g>
		<path style="fill:#B75742;" d="M482.87,1483.733h114.651c3.033,0,5.766,1.833,6.917,4.64l35.302,86.101h63.208
			c1.768,0,3.2,1.432,3.2,3.197l0,0c0,1.767-1.433,3.198-3.2,3.198H523.053c-4.946,0-9.431-2.903-11.456-7.415l-35.546-79.183
			C473.83,1489.324,477.448,1483.733,482.87,1483.733z"/>
		<path style="fill:#FFFFFF;" d="M544.598,1533.87c0.774,3.868,4.148,6.454,7.535,5.776c3.387-0.677,5.504-4.361,4.73-8.229
			c-0.775-3.867-4.148-6.453-7.535-5.776C545.941,1526.319,543.824,1530.003,544.598,1533.87z"/>
	</g>
	<path style="fill:#184655;" d="M715.029,1595.393H372.497c-4.01,0-7.262-3.251-7.262-7.262l0,0c0-4.011,3.251-7.262,7.262-7.262
		h342.532c4.011,0,7.262,3.251,7.262,7.262l0,0C722.291,1592.142,719.04,1595.393,715.029,1595.393z"/>
	<path style="fill:#FFFFFF;" d="M714.524,1426.881l15.534-0.804c0,0-0.052,5.918-6.874,6.47
		C714.867,1433.219,714.524,1426.881,714.524,1426.881z"/>
	<path style="fill:#355389;" d="M665.927,1711.131l7.015-29.202c4.905-20.423,22.991-35.282,43.979-36.13l88.849-3.592l2.742-9.045
		l-91.951,3.716c-24.96,1.011-46.466,18.679-52.3,42.966l-7.454,31.03C659.331,1710.981,662.41,1711.065,665.927,1711.131z"/>
	<path style="fill:#184655;" d="M785.102,1695.577c0,0-122.069,2.089-134.795,0c-12.726-2.09-18.234,13.865-14.435,22.223
		s14.246,11.587,29.631,12.347c15.385,0.76,143.406,4.369,147.015,0.949c2.948-2.792,41.758-135.475,55.879-183.996
		c2.822-9.697-2.744-19.832-12.436-22.676l0,0c-9.646-2.831-19.772,2.642-22.688,12.262L785.102,1695.577z"/>
	<rect x="709.025" y="1591.889" style="fill:#13375B;" width="6.033" height="300.588"/>
	<rect x="372.885" y="1611.347" style="fill:#13375B;" width="340.666" height="3.234"/>
	<g>
		<path style="fill:#E25A44;" d="M1622.085,145.525c0,0,44.258,28.646,153.339,24.749c0,0-116.917,44.151-162.631,50.981
			l-18.813-74.308L1622.085,145.525z"/>
		<path style="fill:#B75742;" d="M1642.944,182.942c0,0-8.935,20.923-30.151,38.314l-9.804-38.724l0.634-18.732L1642.944,182.942z"
			/>
		<path style="fill:#F47458;" d="M1474.717,103.133c0,0,127.806-8.638,147.683-1.335l20.545,81.144c0,0-72.747-6.251-143.619,17.386
			L1474.717,103.133z"/>
		<path style="fill:#F48C7F;" d="M1397.732,1007.591c0,0-6.157,10.05-5.602,13.025c0.557,2.976,7.96,34.483,12.04,36.566
			c4.079,2.083,14.411,1.677,12.093,5.77c-1.752,3.093-20.218,7.202-32.536,9.609c-3.596,0.703-15.207-26.467-17.665-30.271
			c-3.569-5.523-11.975-17.872-11.186-22.551c0.384-2.28,3.64-7.591,8.735-13.067c5.36-5.761,9.157-16.528,9.157-16.528
			L1397.732,1007.591z"/>
		<path style="fill:#F7A491;" d="M1487.148,1004.724c0,0-2.084,22.526-2.079,22.582c0.285,3.413,0.191,12.048,0.945,15.024
			c2.832,11.187,48.042-22.267,35.48-24.361c-1.137-0.19-5.255-2.961-6.555-6.683c-2.004-5.734,0.901-14.299,0.901-14.299
			L1487.148,1004.724z"/>
		<path style="fill:#3C8F7C;" d="M1468.815,599.723c0,0,13.062,36.13,13.201,36.682c15.179,59.952,56.713,174.048,57.307,185.892
			c1.447,28.888-22.386,184.155-22.386,184.155l-33.043,4.287l-0.72-178.493l-32.491-63.691l-55.588-128.085L1468.815,599.723z"/>
		<path style="fill:#50BFA5;" d="M1369.477,659.757l2.808,36.667l20.138,148.733l-26.932,157.166c0,0,14.025,18.326,27.769,17.919
			l63.071-170.33l14.996-201.315l-12.617-40.688L1369.477,659.757z"/>
		<path style="fill:#13375B;" d="M1363.959,1006.373c0,0,32.283,48.295,40.309,48.989c2.132,0.184,11.969-0.471,14.794,3.237
			c0.852,1.117,2.653,6.709,2.653,6.709l-40.503,11.656c0,0-10.947-25.106-15.513-34.883c0,0-16.754-22.468-16.176-25.042
			C1350.102,1014.467,1363.959,1006.373,1363.959,1006.373z"/>
		<path style="fill:#13375B;" d="M1484.003,1048.059l1.233-21.022c0,0,13.432,2.061,19.281-0.331
			c5.849-2.391,16.826-8.811,16.826-8.811c26.23,1.839,47.045,0.685,45.061,8.01l0,0L1484.003,1048.059z"/>
		<path style="fill:#F48C7F;" d="M1546.681,477.79l17.467,13.4c3.365-2.594,10.726-13.517,15.492-16.921l-15.956-17.408l0,0
			c-1.315-0.962-2.023-2.548-1.866-4.17c0.11-1.145,0.274-2.227,0.439-2.684c0.497-1.376,0.943-3.017,1.44-4.394
			c0.497-1.376-2.797-4.143-4.528-4.634c-1.729-0.492-2.305,6.145-3.055,8.116c-2.265,5.949-4.989,22.238-5.511,24.935
			L1546.681,477.79z"/>
		<path style="fill:#13375B;" d="M1566.035,489.488c-4.905-5.232-11.828-8.171-16.964-13.608l-77.513,53.374
			c0,0-59.926-70.866-92.466-45.756c14.241,23.984,31.409,46.963,40.246,57.907c19.902,24.644,50.288,36.4,56.222,33.678
			C1482.244,572.019,1564.295,491.598,1566.035,489.488z"/>
		<path style="fill:#F8A492;" d="M1227.012,312.1c2.563,6.829,6.998,17.576,6.998,17.576c0.125,3.086,0.762,15.918,1.574,31.642
			l21.811-11.946c0,0-3.35-25.375-2.515-27.054c0.706-1.42,2.356,0.045,8.166-10.858c1.677-3.147,1.429-8.378,1.429-8.378
			s-0.354-6.432-1.859-6.853c-1.505-0.421-3.033,0.731-3.419,1.896c-0.386,1.166,0.06,3.718-0.326,4.884s-3.54,2.896-4.944,2.996
			c-1.404,0.101-2.11-18.898-2.11-18.898s0.134-5.428,0.318-7.221c0.157-1.529,0.983-6.056,0.983-6.056s0.824-6.522-1.2-6.768
			c-1.193-0.145-3.523,5.355-4.887,11.059c-1.468,6.142-1.949,12.525-2.583,12.517c-1.487-0.02-1.96-10.426-1.96-10.426
			s0.887-4.9,0.581-7.125c1.046-2.898,1.347-8.076-1.129-8.202c-0.457-0.023-2.873,6.801-2.873,6.801s-0.708,4.684-1.185,6.89
			c-0.839,3.892-0.319,9.815-0.679,12.498c-0.299,2.232-0.913,1.404-1.133,1.522c-0.171,0.091-0.219-2.931-0.357-7.077
			c-0.07-2.088-0.597-4.443-0.304-6.867c0.271-2.244,0.201-5.4,0.112-7.301c-0.253-5.382-3.545-4.429-4.116,0.588
			c-0.217,1.911-0.438,3.995-0.652,6.107c-0.836,8.214,0.147,15.911-0.707,16.08c-1.109,0.219-2.069-13.896-2.069-13.896
			s-2.657-7.556-3.491-0.144c-0.968,8.6,0.063,15.392,0.127,15.69C1225.04,297.794,1224.447,305.271,1227.012,312.1z"/>
		<path style="fill:#F47458;" d="M1380.027,377.373c0,0-13.154-10.888-20.727,5.209c0,0-7.719-3.183-11.916,4.659
			c0,0-13.535-2.351-14.343,17.56c0,0-6.874-0.455-6.795,7.641s4.781,12.93,4.781,12.93s-3.433,3.288-0.829,10.425
			c2.214,6.069,7.496,6.394,7.496,6.394s2.668,10.355,7.616,12.973s10.978,0.344,10.978,0.344s2.339,5.506,7.604,4.355
			c5.264-1.152,11.243-7.021,17.479-5.46c6.235,1.561,21.413-2.72,21.413-2.72s16.436-9.837,9.089-26.959
			c0,0,8.132-9.347-1.054-18.27c0,0,3.961-16.175-8.682-23.909C1389.495,374.811,1380.027,377.373,1380.027,377.373z"/>
		<path style="fill:#F7CC7F;" d="M1417.248,489.275l-26.766-13.77c0,0-23.78,3.47-26.73,3.827
			c-2.951,0.357-8.505,111.149-8.972,152.649c-0.467,41.5,4.599,48.224,4.599,48.224s38.75,3.919,66.358-1.931
			c28.709-6.083,59.465-25.703,59.465-25.703s-34.305-75.489-42.188-99.401C1435.131,529.259,1417.248,489.275,1417.248,489.275z"/>
		<path style="fill:#13375B;" d="M1364.813,479.055l-87.918-70.276c0,0-20.03-74.092-21.148-76.839
			c-1.099-2.698-20.718-1.854-28.644-1.669c-2.543,0.06,11.034,80.162,16.415,93.213c6.356,15.419,74.312,80.95,74.312,80.95
			s15.368,38.088,16.309,67.276c1.562,48.479-1.887,115.844,0.413,117.665c13.688,6.472,62.609,1.423,65.098-3.927
			C1427.12,626.369,1364.813,479.055,1364.813,479.055z"/>
		<path style="fill:#F7A491;" d="M1388.16,461.113l4.008,15.411c0,0,7.462,21.998,1.902,27.086
			c-5.559,5.088-29.216-24.433-29.216-24.433l-2.713-39.95L1388.16,461.113z"/>
		<path style="fill:#F47458;" d="M1363.023,452.173c6.665,12.932,19.646,19.806,28.535,22.006l-3.398-13.065l-26.019-21.887
			L1363.023,452.173z"/>
		<path style="fill:#F47458;" d="M1326.488,416.165c0.732,6.046,4.764,10.532,9.005,10.019c4.241-0.513,7.086-5.831,6.354-11.877
			s-4.763-10.531-9.004-10.018C1328.603,404.802,1325.757,410.119,1326.488,416.165z"/>
		<path style="fill:#F47458;" d="M1346.68,389.847c0.421,3.475,4.945,5.785,10.105,5.161c5.16-0.624,9.003-3.947,8.582-7.422
			c-0.421-3.475-4.944-5.786-10.105-5.161C1350.102,383.049,1346.26,386.372,1346.68,389.847z"/>
		<path style="fill:#F7A491;" d="M1371.158,395.818c11.836-5.746,25.993,0.865,29.418,13.368c1.489,5.435,3.072,12.303,4.132,19.894
			c2.546,18.258-4.771,37.212-13.08,38.217c-8.31,1.006-32.706-8.061-36.681-33.937
			C1352.494,417.385,1358.738,401.848,1371.158,395.818z"/>
		<path style="fill:#F7A491;" d="M1361.318,434.674c0.488,4.036-1.791,7.632-5.092,8.032c-3.301,0.399-6.373-2.549-6.861-6.585
			c-0.488-4.036,1.792-7.632,5.092-8.032C1357.758,427.69,1360.83,430.638,1361.318,434.674z"/>
		<path style="fill:#F47458;" d="M1406.054,382.358c9.405,5.76,13.663,15.727,9.511,22.262c-4.153,6.534-15.145,7.161-24.551,1.401
			c-9.404-5.761-13.662-15.728-9.51-22.262C1385.657,377.225,1396.648,376.597,1406.054,382.358z"/>
		<path style="fill:#F47458;" d="M1384.289,390.648c0.357,2.955-2.92,5.782-7.321,6.314c-4.4,0.532-8.258-1.431-8.616-4.386
			c-0.357-2.955,2.921-5.782,7.321-6.314C1380.074,385.73,1383.932,387.694,1384.289,390.648z"/>
		<path style="fill:#F47458;" d="M1410.752,410.517c0.46,3.799-2.213,7.248-5.97,7.702c-3.757,0.454-7.176-2.257-7.635-6.056
			c-0.46-3.799,2.213-7.247,5.97-7.702S1410.292,406.718,1410.752,410.517z"/>
		<path style="fill:#13375B;" d="M1439.565,505.746c0,0,37.164,87.845,50.383,118.806c1.431,3.35,8.618,25.245,8.883,27.432
			c0.587,4.85-19.78,13.561-22.331,13.5c-2.282-0.055-32.199-92.829-49.585-137.894c-5.892-15.271-14.528-29.329-25.488-41.485
			l-8.443-6.971l-0.815-2.61C1392.168,476.524,1429.906,479.883,1439.565,505.746z"/>
		
			<rect x="1543.146" y="78.404" transform="matrix(0.9694 -0.2454 0.2454 0.9694 -47.6724 391.4375)" style="fill:#13375B;" width="6.873" height="617.145"/>
		<g>
			<path style="fill:#F7A491;" d="M1582.899,466.455c-0.243-1.323-0.666-2.679-1.212-4.027c-0.622-1.441-1.627-3.181-2.312-3.69
				c-0.437-0.325-0.757-1.373-1.173-2.439c-0.133-0.342-0.306-0.671-0.521-0.969c-0.005-0.006-0.01-0.013-0.015-0.02
				c-0.626-0.865-1.415-1.587-2.285-2.206c-0.826-0.587-1.545-1.36-2.464-2.673c-0.714-1.02-1.647-1.891-2.766-2.437
				c-1.102-0.538-1.948-0.552-2.344,0.127c-1.827,3.139-10.967,13.16-7.265,18.004c3.098,4.053,7.137,8.275,7.971,10.192
				c1.144,2.63,5.161,2.447,7.563,1.53C1580.601,476.12,1584.152,473.267,1582.899,466.455z"/>
		</g>
	</g>
	<rect x="153" y="1890.097" style="fill:#184655;" width="1945.947" height="6.903"/>
	<g>
		<path style="fill:#F47458;" d="M1446.556,350.411c0.367-0.822,1.611-0.963,2.21-0.341c0.964,1,1.943,1.983,2.918,2.973
			c2.151,2.185,2.168,2.337,2.49,2.288c0.771-0.118,0.794-1.509,0.755-2.022c-0.087-1.137-0.462-2.26-0.314-3.408
			c0.286-2.239,2.349-3.39,4.193-1.887c1.689,1.375,3.313,2.858,4.918,4.346c0.128-2.446,0.187-4.897,0.349-7.339
			c0.059-0.867,0.939-1.246,1.615-0.717c1.505,1.176,5.96,4.658,7.429,5.806c0.38,0.297,1.986,1.89,2.448,1.601
			c0.414-0.259,0.386-1.967,0.428-2.346c0.23-2.096,0.341-2.833,1.247-9.636c0.108-0.81,1.35-1.192,1.881-0.556
			c5.227,6.259,6.02,5.605,6.493,7.478c0.106,0.42-0.232,0.705-0.627,0.665c-1.004-0.102-1.236-0.197-3.849-2.72
			c-0.676-0.653-1.335-1.322-1.976-2.007c-0.944,8.282-0.984,10.391-3.054,11.013c-1.437,0.431-1.681-0.019-10.095-6.63
			c-0.001,2.571-0.158,5.127-0.268,7.705c-0.042,0.978-1.093,1.434-1.842,0.817c-6.024-4.958-5.979-5.333-6.629-5.626
			c-0.018-0.008-0.005-0.451-0.111,0.189c-0.18,1.087,0.854,3.438,0.092,5.41c-0.67,1.735-2.57,3.063-4.409,2.158
			c-1.068-0.525-1.359-1.05-4.582-4.148c-0.958,1.991-2.148,3.859-3.647,5.705c-0.649,0.8-1.179,1.242-2.151,1.596
			c-0.795,0.289-1.736-0.567-1.474-1.389C1441.74,357.053,1443.837,356.495,1446.556,350.411z"/>
		<path style="fill:#66CCB2;" d="M1418.847,320.044c2.273,0.389,4.452,0.598,6.847,0.588c0.451-0.002,1.29,0.095,1.584-0.356
			c0.707-1.087-1.143-2.775-1.965-7.028c-0.357-1.845-1.258-5.628,1.223-6.381c1.271-0.386,2.857-0.083,4.165-0.05
			c0.993,0.025,1.986,0.011,2.979,0.018c-1.772-6.915-2.184-6.531-1.469-8.074c0.186-0.4,0.807-0.598,1.181-0.349
			c1.388,0.924,0.989,0.734,3.312,9.43c0.213,0.794-0.355,1.75-1.248,1.727c-1.344-0.036-7.424-0.522-8.179-0.461
			c0.047,0.071-0.022,0.399-0.021,0.47c0.031,2.872,1.011,5.306,2.021,7.933c0.827,2.153,0.775,5.05-1.963,5.659
			c-1.485,0.331-4.531,0.114-6.873-0.157c1.236,4.213,2.504,8.42,3.713,12.638c0.236,0.826-0.397,1.991-1.376,1.903
			c-2.718-0.245-5.437-0.395-8.159-0.526c0.749,2.477,1.883,4.827,3.351,6.968c1.082,1.579-1.136,3.508-3.592-0.66
			c-1.449-2.288-2.488-4.79-3.124-7.462c-0.21-0.884,0.375-1.927,1.38-1.908c2.698,0.05,5.399,0.223,8.091,0.449
			c-1.18-4.211-2.317-8.438-3.498-12.649C1416.934,320.732,1417.839,319.872,1418.847,320.044z"/>
		<path style="fill:#07345A;" d="M1355.65,296.574c-0.787-0.025-1.272-0.541-1.382-1.298c-0.535-3.701-0.751-7.36-0.008-11.062
			c0.387-1.925,3.191-1.202,2.929,0.682c-0.412,2.954-0.679,6.004-0.399,8.994c2.187-0.045,4.354-0.305,6.487-0.824
			c0.809-0.197,1.871,0.354,1.813,1.311c-0.144,2.383-0.954,11.395-1.053,11.473c0.018-0.007,0.079-0.022,0.236,0.009
			c0.939,0.188,4.169-0.479,5.633-0.388c1.643,0.103,2.167,2.331,2.25,3.678c0.169,2.733-1.869,5.736-0.913,8.408
			c0.919,2.57,4.961-0.259,7.979,1.84c2.325,1.618,1.521,4.342,0.562,8.646c-0.236,1.056-0.478,2.084-1.521,2.606
			c-0.257,0.129-0.631,0.147-0.842-0.094c-1.145-1.312-0.558-2.863,0.213-6.798c0.099-0.501,0.419-1.345,0.068-1.795
			c-1.167-1.503-4.581,0.636-7.341-1.161c-2.15-1.4-2.464-4.151-2.11-6.48c0.276-1.825,1.397-4.067,0.81-5.93
			c-1.565,0.083-3.146,0.209-4.704,0.17c-1.702-0.043-2.859-0.941-2.943-2.685c-0.093-1.929,0.233-3.93,0.383-5.852
			c0.102-1.293,0.196-2.587,0.309-3.879C1359.973,296.487,1357.823,296.644,1355.65,296.574z"/>
		<path style="fill:#3C8F7C;" d="M1468.538,391.141c6.513,8.345,0.381,12.393-2.348,9.973c-1.169-1.037-1.224-2.836,0.147-3.712
			c0.628-0.401,1.636,0.232,1.377,0.999c-0.215,0.635,0.505,0.801,0.801,0.129c0.398-0.905-0.243-2.03-0.641-2.826
			c-0.927-1.858-2.104-4.28-4.393-4.643c-3.417-0.54-7.125,2.877-5.248,8.099c2.707,7.533,14.904,7.441,17.113-0.438
			c1.203-4.287-0.515-8.958-3.988-11.679c-0.679-0.532,0.152-1.437,0.838-1.144c5.2,2.227,7.043,8.99,5.145,14.047
			c-1.947,5.187-7.502,7.671-12.795,6.776c-5.55-0.939-10.07-5.814-9.339-11.627C1456.011,388.72,1463.984,385.307,1468.538,391.141
			z"/>
		<path style="fill:#F7CC7F;" d="M1334.085,321.407c0.901,1.358,1.41,4.13-0.428,4.99c-0.854,0.4-1.89,0.143-2.188-0.848
			c-0.292-0.97,0.244-1.856-0.626-2.619c-0.747-0.654-1.85-0.294-2.546,0.273c-2.124,1.729-1.574,5.524-0.469,7.669
			c1.757,3.406,6.546,4.097,8.931,0.515c0.746-1.12,0.934-2.436,1.262-3.713c0.182-0.705,1.31-1.023,1.67-0.265
			c1.384,2.914-0.563,6.43-3.048,8.085c-2.607,1.737-6.262,1.586-8.837-0.132c-2.878-1.919-4.244-5.696-4.128-9.065
			C1323.919,319.297,1331.166,317.008,1334.085,321.407z"/>
	</g>
	<path style="fill:#FFFFFF;" d="M1003.649,1298.354c0,0,3.101,5.041,9.227,1.992c7.47-3.719,4.492-9.323,4.492-9.323
		L1003.649,1298.354z"/>
	<path style="fill:#FFFFFF;" d="M1381.967,446.789c0,0,0.612,5.887,7.455,5.79c8.344-0.119,8.086-6.46,8.086-6.46L1381.967,446.789z
		"/>
</g>
</svg>
